<svg xmlns="http://www.w3.org/2000/svg" xmlns:xlink="http://www.w3.org/1999/xlink" width="2000" zoomAndPan="magnify" viewBox="0 0 1500 1499.999933" height="2000" preserveAspectRatio="xMidYMid meet" version="1.0"><defs><g/><clipPath id="bbd490e90e"><rect x="0" width="566" y="0" height="770"/></clipPath><clipPath id="f44e839ae3"><path d="M 684.214844 92.585938 L 815.464844 92.585938 L 815.464844 355.835938 L 684.214844 355.835938 Z M 684.214844 92.585938 " clip-rule="nonzero"/></clipPath><clipPath id="dd4e04e3a5"><rect x="0" width="1163" y="0" height="243"/></clipPath></defs><g transform="matrix(1, 0, 0, 1, 467, 193)"><g clip-path="url(#bbd490e90e)"><g fill="#000000" fill-opacity="1"><g transform="translate(0.701431, 576.998627)"><g><path d="M 540.015625 -564.5625 L 282.28125 26.078125 L 24.546875 -564.5625 L 158.015625 -564.5625 L 286.890625 -246.234375 L 408.078125 -564.5625 Z M 540.015625 -564.5625 "/></g></g></g></g></g><g clip-path="url(#f44e839ae3)"><path fill="#165d94" d="M 815.785156 224.152344 L 814.707031 224.152344 L 750.003906 92.585938 L 684.214844 224.152344 L 750.003906 355.714844 Z M 815.785156 224.152344 " fill-opacity="1" fill-rule="nonzero"/></g><g transform="matrix(1, 0, 0, 1, 168, 798)"><g clip-path="url(#dd4e04e3a5)"><g fill="#000000" fill-opacity="1"><g transform="translate(2.188803, 191.863702)"><g><path d="M 149.625 -138.546875 L 89.65625 0 L 57.984375 0 L -1.78125 -138.546875 L 32.859375 -138.546875 L 75.015625 -39.578125 L 117.765625 -138.546875 Z M 149.625 -138.546875 "/></g></g></g><g fill="#000000" fill-opacity="1"><g transform="translate(142.319747, 191.863702)"><g><path d="M 107.671875 -29.6875 L 43.34375 -29.6875 L 31.078125 0 L -1.78125 0 L 59.96875 -138.546875 L 91.640625 -138.546875 L 153.59375 0 L 119.9375 0 Z M 97.578125 -54.03125 L 75.609375 -107.078125 L 53.640625 -54.03125 Z M 97.578125 -54.03125 "/></g></g></g><g fill="#000000" fill-opacity="1"><g transform="translate(293.930369, 191.863702)"><g><path d="M 143.5 -138.546875 L 143.5 0 L 117.171875 0 L 48.09375 -84.109375 L 48.09375 0 L 16.421875 0 L 16.421875 -138.546875 L 42.953125 -138.546875 L 111.828125 -54.421875 L 111.828125 -138.546875 Z M 143.5 -138.546875 "/></g></g></g><g fill="#000000" fill-opacity="1"><g transform="translate(453.853827, 191.863702)"><g><path d="M 45.125 -112.421875 L 0.796875 -112.421875 L 0.796875 -138.546875 L 121.53125 -138.546875 L 121.53125 -112.421875 L 77.1875 -112.421875 L 77.1875 0 L 45.125 0 Z M 45.125 -112.421875 "/></g></g></g><g fill="#000000" fill-opacity="1"><g transform="translate(576.171524, 191.863702)"><g><path d="M 143.5 -138.546875 L 143.5 0 L 111.4375 0 L 111.4375 -56.796875 L 48.484375 -56.796875 L 48.484375 0 L 16.421875 0 L 16.421875 -138.546875 L 48.484375 -138.546875 L 48.484375 -83.921875 L 111.4375 -83.921875 L 111.4375 -138.546875 Z M 143.5 -138.546875 "/></g></g></g><g fill="#000000" fill-opacity="1"><g transform="translate(736.094982, 191.863702)"><g><path d="M 123.703125 -25.734375 L 123.703125 0 L 16.421875 0 L 16.421875 -138.546875 L 121.125 -138.546875 L 121.125 -112.8125 L 48.296875 -112.8125 L 48.296875 -82.734375 L 112.625 -82.734375 L 112.625 -57.796875 L 48.296875 -57.796875 L 48.296875 -25.734375 Z M 123.703125 -25.734375 "/></g></g></g><g fill="#000000" fill-opacity="1"><g transform="translate(868.506854, 191.863702)"><g><path d="M 83.515625 2.375 C 69.140625 2.375 56.175781 -0.722656 44.625 -6.921875 C 33.082031 -13.128906 24.046875 -21.675781 17.515625 -32.5625 C 10.984375 -43.445312 7.71875 -55.679688 7.71875 -69.265625 C 7.71875 -82.859375 10.984375 -95.097656 17.515625 -105.984375 C 24.046875 -116.867188 33.082031 -125.410156 44.625 -131.609375 C 56.175781 -137.816406 69.140625 -140.921875 83.515625 -140.921875 C 97.898438 -140.921875 110.832031 -137.816406 122.3125 -131.609375 C 133.789062 -125.410156 142.828125 -116.867188 149.421875 -105.984375 C 156.023438 -95.097656 159.328125 -82.859375 159.328125 -69.265625 C 159.328125 -55.679688 156.023438 -43.445312 149.421875 -32.5625 C 142.828125 -21.675781 133.789062 -13.128906 122.3125 -6.921875 C 110.832031 -0.722656 97.898438 2.375 83.515625 2.375 Z M 83.515625 -24.9375 C 91.703125 -24.9375 99.09375 -26.816406 105.6875 -30.578125 C 112.289062 -34.335938 117.472656 -39.582031 121.234375 -46.3125 C 124.992188 -53.039062 126.875 -60.691406 126.875 -69.265625 C 126.875 -77.847656 124.992188 -85.503906 121.234375 -92.234375 C 117.472656 -98.960938 112.289062 -104.207031 105.6875 -107.96875 C 99.09375 -111.726562 91.703125 -113.609375 83.515625 -113.609375 C 75.335938 -113.609375 67.945312 -111.726562 61.34375 -107.96875 C 54.75 -104.207031 49.570312 -98.960938 45.8125 -92.234375 C 42.050781 -85.503906 40.171875 -77.847656 40.171875 -69.265625 C 40.171875 -60.691406 42.050781 -53.039062 45.8125 -46.3125 C 49.570312 -39.582031 54.75 -34.335938 61.34375 -30.578125 C 67.945312 -26.816406 75.335938 -24.9375 83.515625 -24.9375 Z M 83.515625 -24.9375 "/></g></g></g><g fill="#000000" fill-opacity="1"><g transform="translate(1035.555605, 191.863702)"><g><path d="M 61.953125 2.375 C 50.992188 2.375 40.398438 0.890625 30.171875 -2.078125 C 19.953125 -5.046875 11.742188 -8.90625 5.546875 -13.65625 L 16.421875 -37.796875 C 22.359375 -33.441406 29.414062 -29.945312 37.59375 -27.3125 C 45.78125 -24.675781 53.960938 -23.359375 62.140625 -23.359375 C 71.242188 -23.359375 77.972656 -24.707031 82.328125 -27.40625 C 86.679688 -30.113281 88.859375 -33.710938 88.859375 -38.203125 C 88.859375 -41.492188 87.570312 -44.226562 85 -46.40625 C 82.425781 -48.582031 79.128906 -50.332031 75.109375 -51.65625 C 71.085938 -52.976562 65.644531 -54.429688 58.78125 -56.015625 C 48.226562 -58.515625 39.585938 -61.019531 32.859375 -63.53125 C 26.128906 -66.039062 20.351562 -70.066406 15.53125 -75.609375 C 10.71875 -81.148438 8.3125 -88.539062 8.3125 -97.78125 C 8.3125 -105.820312 10.488281 -113.109375 14.84375 -119.640625 C 19.195312 -126.171875 25.757812 -131.347656 34.53125 -135.171875 C 43.3125 -139.003906 54.035156 -140.921875 66.703125 -140.921875 C 75.535156 -140.921875 84.175781 -139.863281 92.625 -137.75 C 101.070312 -135.644531 108.460938 -132.613281 114.796875 -128.65625 L 104.90625 -104.3125 C 92.101562 -111.5625 79.300781 -115.1875 66.5 -115.1875 C 57.53125 -115.1875 50.898438 -113.734375 46.609375 -110.828125 C 42.316406 -107.929688 40.171875 -104.109375 40.171875 -99.359375 C 40.171875 -94.609375 42.644531 -91.078125 47.59375 -88.765625 C 52.539062 -86.453125 60.097656 -84.175781 70.265625 -81.9375 C 80.816406 -79.425781 89.457031 -76.914062 96.1875 -74.40625 C 102.914062 -71.90625 108.6875 -67.945312 113.5 -62.53125 C 118.320312 -57.125 120.734375 -49.804688 120.734375 -40.578125 C 120.734375 -32.660156 118.519531 -25.4375 114.09375 -18.90625 C 109.675781 -12.375 103.046875 -7.191406 94.203125 -3.359375 C 85.367188 0.460938 74.617188 2.375 61.953125 2.375 Z M 61.953125 2.375 "/></g></g></g></g></g></svg>